<svg height="512pt" preserveAspectRatio="xMidYMid meet" viewBox="0 0 512 512" width="512pt" xmlns="http://www.w3.org/2000/svg"><g transform="matrix(.1 0 0 -.1 0 512)"><path d="m2465 4728c-120-40-175-99-155-168 11-37 57-98 125-164s113-95 176-112c189-50 443 60 465 201 19 132-58 200-276 241-86 16-290 17-335 2z"/><path d="m1784 4631c-58-26-74-54-74-126 0-33 4-65 8-71 11-17 104-34 187-34 72 0 75 1 99 33 15 19 26 45 26 59 0 62-58 124-136 146-54 16-61 15-110-7z"/><path d="m1173 4418c-4-7-8-85-9-173-1-105-7-182-17-225-66-281-87-383-87-432s-3-60-22-71c-13-8-59-35-103-61-275-161-527-421-660-681-14-27-30-57-35-65-21-38-70-186-96-295-25-105-29-139-29-270s4-165 29-270c40-168 96-309 174-440 106-178 305-399 478-530 325-247 778-440 1183-505 36-6 69-14 75-19 26-20 180-33 441-38 244-4 301-2 440 16 187 24 265 39 265 52 0 5 12 9 27 9s40 4 57 10c17 5 65 19 106 31 41 11 84 25 95 29s39 15 63 24c99 38 133 52 242 104 125 59 299 169 413 259 158 126 337 323 451 498 22 33 47 71 56 85 40 60 122 246 153 346 73 232 88 331 88 579 0 182-19 387-38 418-3 6-8 28-10 51-6 52-68 240-94 284-10 18-19 39-19 46 0 20-101 216-112 216-5 0-6 5-3 10 4 6-6 30-22 54-15 24-48 79-73 121-25 43-50 86-56 97s-21 30-33 44c-11 13-21 26-21 29 0 9-122 170-174 229-215 245-428 381-626 400-81 8-130-2-130-26 0-11-8-58-17-104l-18-84h-123c-68 0-132-5-143-10-29-16-25-78 11-153 39-83 42-165 8-198-53-50-44-49-695-44l-607 5-26 48c-85 155-126 196-345 343-77 51-189 133-249 181-106 86-145 104-163 76zm911-1380c107-255 181-427 202-473 13-27 51-115 85-195s70-164 80-187 19-44 19-47 11-29 24-58 38-84 55-122c17-37 31-72 31-76 0-8 23-61 85-195 13-28 27-64 31-79 6-26 5-28-12-21-31 15-263 18-329 5-106-21-188-41-265-67-85-28-246-102-289-132-16-12-31-21-34-21-5 0-18 51-42 160-8 41-22 100-29 130-8 30-28 116-45 190s-41 176-52 225c-12 50-25 110-29 135s-17 81-29 125-25 103-30 130c-5 28-18 86-29 130-38 154-54 221-77 330-13 61-28 123-34 138-6 16-11 30-11 33 0 2 28 4 63 4 78 0 204 22 372 64 72 19 142 36 158 40 21 5 27 12 28 34 0 22 5 16 30-35 16-34 49-108 73-165zm1901-46c17-5 55-17 86-26 85-26 203-100 285-180 106-105 134-176 196-496 12-65 5-277-12-335-6-22-18-65-27-95-41-145-151-320-278-438-164-154-400-276-631-326-141-30-193-36-315-36-189 0-252 29-306 139-25 50-27 66-28 171 0 140 7 154 129 265 49 45 95 97 112 128 29 52 29 53 29 222 0 125-6 197-20 270s-19 146-19 270l-1 170 32 55c37 64 78 106 147 149s191 86 296 105c44 8 294-1 325-12zm-3083-612c16-16 33-30 37-30 5 0 27-14 50-30 86-63 105-144 51-218-92-127-276-99-346 53-29 61-30 112-4 170 29 63 61 85 127 85 47 0 59-4 85-30z"/><path d="m283 3302c-6-4-17-20-22-36-19-49 30-116 86-116 21 0 83 61 83 81 0 42-110 95-147 71z"/><path d="m4530 1027c-8-7-38-39-67-72-28-34-64-67-80-75-30-16-73-56-73-69 0-4 10-17 23-29 19-18 35-22 83-22 83 1 142 32 172 90 51 101 8 231-58 177z"/><path d="m4762 967c-25-26-27-45-11-80 27-59 109-63 146-8 27 39 19 61-30 91-43 26-79 25-105-3z"/></g></svg>